<mxfile modified="2020-02-06T13:07:25.140Z" host="www.draw.io" agent="Mozilla/5.0 (Windows NT 10.0; Win64; x64) AppleWebKit/537.36 (KHTML, like Gecko) Chrome/79.0.3945.130 Safari/537.36" etag="_47fvf3Y9m3yIPCgJgQs" version="12.6.5" type="github">
  <diagram id="lfXYJvxCAhUcY_fn3c6l" name="Page-1">
    <mxGraphModel dx="3076" dy="762" grid="1" gridSize="10" guides="1" tooltips="1" connect="1" arrows="1" fold="1" page="1" pageScale="1" pageWidth="827" pageHeight="1169" math="0" shadow="0">
      <root>
        <mxCell id="0"/>
        <mxCell id="1" parent="0"/>
        <mxCell id="5WL3lZxglGsXFXUX4CAb-3" value="" style="edgeStyle=orthogonalEdgeStyle;rounded=0;orthogonalLoop=1;jettySize=auto;html=1;" parent="1" source="5WL3lZxglGsXFXUX4CAb-1" target="5WL3lZxglGsXFXUX4CAb-2" edge="1">
          <mxGeometry relative="1" as="geometry"/>
        </mxCell>
        <mxCell id="5WL3lZxglGsXFXUX4CAb-1" value="Game Config" style="rounded=1;whiteSpace=wrap;html=1;" parent="1" vertex="1">
          <mxGeometry x="600" width="120" height="60" as="geometry"/>
        </mxCell>
        <mxCell id="5WL3lZxglGsXFXUX4CAb-8" value="" style="edgeStyle=orthogonalEdgeStyle;rounded=0;orthogonalLoop=1;jettySize=auto;html=1;" parent="1" source="5WL3lZxglGsXFXUX4CAb-2" target="5WL3lZxglGsXFXUX4CAb-7" edge="1">
          <mxGeometry relative="1" as="geometry"/>
        </mxCell>
        <mxCell id="5WL3lZxglGsXFXUX4CAb-2" value="Set up canvas and load scenes" style="rounded=1;whiteSpace=wrap;html=1;" parent="1" vertex="1">
          <mxGeometry x="600" y="90" width="120" height="60" as="geometry"/>
        </mxCell>
        <mxCell id="5WL3lZxglGsXFXUX4CAb-10" value="" style="edgeStyle=orthogonalEdgeStyle;rounded=0;orthogonalLoop=1;jettySize=auto;html=1;" parent="1" source="5WL3lZxglGsXFXUX4CAb-7" target="5WL3lZxglGsXFXUX4CAb-9" edge="1">
          <mxGeometry relative="1" as="geometry"/>
        </mxCell>
        <mxCell id="5WL3lZxglGsXFXUX4CAb-7" value="Launch Preloader scene and load all images and assets" style="rounded=1;whiteSpace=wrap;html=1;" parent="1" vertex="1">
          <mxGeometry x="600" y="180" width="120" height="60" as="geometry"/>
        </mxCell>
        <mxCell id="5WL3lZxglGsXFXUX4CAb-9" value="Launches Menu scene" style="rounded=1;whiteSpace=wrap;html=1;" parent="1" vertex="1">
          <mxGeometry x="600" y="270" width="120" height="60" as="geometry"/>
        </mxCell>
        <mxCell id="5WL3lZxglGsXFXUX4CAb-13" value="" style="edgeStyle=orthogonalEdgeStyle;rounded=0;orthogonalLoop=1;jettySize=auto;html=1;" parent="1" source="5WL3lZxglGsXFXUX4CAb-11" target="5WL3lZxglGsXFXUX4CAb-12" edge="1">
          <mxGeometry relative="1" as="geometry"/>
        </mxCell>
        <mxCell id="5WL3lZxglGsXFXUX4CAb-11" value="Menu Scene" style="rounded=1;whiteSpace=wrap;html=1;" parent="1" vertex="1">
          <mxGeometry x="840" width="120" height="60" as="geometry"/>
        </mxCell>
        <mxCell id="5WL3lZxglGsXFXUX4CAb-15" value="" style="edgeStyle=orthogonalEdgeStyle;rounded=0;orthogonalLoop=1;jettySize=auto;html=1;" parent="1" source="5WL3lZxglGsXFXUX4CAb-12" target="5WL3lZxglGsXFXUX4CAb-14" edge="1">
          <mxGeometry relative="1" as="geometry"/>
        </mxCell>
        <mxCell id="5WL3lZxglGsXFXUX4CAb-12" value="Call images from Preloader scene" style="rounded=1;whiteSpace=wrap;html=1;" parent="1" vertex="1">
          <mxGeometry x="840" y="90" width="120" height="60" as="geometry"/>
        </mxCell>
        <mxCell id="5WL3lZxglGsXFXUX4CAb-17" value="" style="edgeStyle=orthogonalEdgeStyle;rounded=0;orthogonalLoop=1;jettySize=auto;html=1;" parent="1" source="5WL3lZxglGsXFXUX4CAb-14" target="5WL3lZxglGsXFXUX4CAb-16" edge="1">
          <mxGeometry relative="1" as="geometry"/>
        </mxCell>
        <mxCell id="5WL3lZxglGsXFXUX4CAb-19" value="" style="edgeStyle=orthogonalEdgeStyle;rounded=0;orthogonalLoop=1;jettySize=auto;html=1;" parent="1" source="5WL3lZxglGsXFXUX4CAb-14" target="5WL3lZxglGsXFXUX4CAb-18" edge="1">
          <mxGeometry relative="1" as="geometry"/>
        </mxCell>
        <mxCell id="5WL3lZxglGsXFXUX4CAb-14" value="Connect image to interactive&amp;nbsp;buttons" style="rounded=1;whiteSpace=wrap;html=1;" parent="1" vertex="1">
          <mxGeometry x="840" y="180" width="120" height="60" as="geometry"/>
        </mxCell>
        <mxCell id="5WL3lZxglGsXFXUX4CAb-18" value="Options button launches Options scene&amp;nbsp;" style="rounded=1;whiteSpace=wrap;html=1;" parent="1" vertex="1">
          <mxGeometry x="920" y="270" width="120" height="60" as="geometry"/>
        </mxCell>
        <mxCell id="5WL3lZxglGsXFXUX4CAb-16" value="Play button launches Game scene" style="rounded=1;whiteSpace=wrap;html=1;" parent="1" vertex="1">
          <mxGeometry x="760" y="270" width="120" height="60" as="geometry"/>
        </mxCell>
        <mxCell id="5WL3lZxglGsXFXUX4CAb-25" value="" style="edgeStyle=orthogonalEdgeStyle;rounded=0;orthogonalLoop=1;jettySize=auto;html=1;" parent="1" source="5WL3lZxglGsXFXUX4CAb-26" target="5WL3lZxglGsXFXUX4CAb-28" edge="1">
          <mxGeometry relative="1" as="geometry"/>
        </mxCell>
        <mxCell id="5WL3lZxglGsXFXUX4CAb-26" value="Options Scene" style="rounded=1;whiteSpace=wrap;html=1;" parent="1" vertex="1">
          <mxGeometry x="1180" width="120" height="60" as="geometry"/>
        </mxCell>
        <mxCell id="5WL3lZxglGsXFXUX4CAb-27" value="" style="edgeStyle=orthogonalEdgeStyle;rounded=0;orthogonalLoop=1;jettySize=auto;html=1;" parent="1" source="5WL3lZxglGsXFXUX4CAb-28" target="5WL3lZxglGsXFXUX4CAb-29" edge="1">
          <mxGeometry relative="1" as="geometry"/>
        </mxCell>
        <mxCell id="5WL3lZxglGsXFXUX4CAb-28" value="Call images from Preloader scene" style="rounded=1;whiteSpace=wrap;html=1;" parent="1" vertex="1">
          <mxGeometry x="1180" y="90" width="120" height="60" as="geometry"/>
        </mxCell>
        <mxCell id="5WL3lZxglGsXFXUX4CAb-31" value="" style="edgeStyle=orthogonalEdgeStyle;rounded=0;orthogonalLoop=1;jettySize=auto;html=1;" parent="1" source="5WL3lZxglGsXFXUX4CAb-29" target="5WL3lZxglGsXFXUX4CAb-30" edge="1">
          <mxGeometry relative="1" as="geometry"/>
        </mxCell>
        <mxCell id="5WL3lZxglGsXFXUX4CAb-35" value="" style="edgeStyle=orthogonalEdgeStyle;rounded=0;orthogonalLoop=1;jettySize=auto;html=1;" parent="1" source="5WL3lZxglGsXFXUX4CAb-29" target="5WL3lZxglGsXFXUX4CAb-34" edge="1">
          <mxGeometry relative="1" as="geometry"/>
        </mxCell>
        <mxCell id="5WL3lZxglGsXFXUX4CAb-29" value="Connect image to interactive&amp;nbsp;buttons" style="rounded=1;whiteSpace=wrap;html=1;" parent="1" vertex="1">
          <mxGeometry x="1180" y="180" width="120" height="60" as="geometry"/>
        </mxCell>
        <mxCell id="5WL3lZxglGsXFXUX4CAb-34" value="Home button will launch Menu Scene" style="rounded=1;whiteSpace=wrap;html=1;" parent="1" vertex="1">
          <mxGeometry x="1100" y="270" width="120" height="60" as="geometry"/>
        </mxCell>
        <mxCell id="5WL3lZxglGsXFXUX4CAb-30" value="Full screen button will make the game occupy the whole screen" style="rounded=1;whiteSpace=wrap;html=1;" parent="1" vertex="1">
          <mxGeometry x="1250" y="270" width="120" height="60" as="geometry"/>
        </mxCell>
        <mxCell id="5WL3lZxglGsXFXUX4CAb-36" value="" style="edgeStyle=orthogonalEdgeStyle;rounded=0;orthogonalLoop=1;jettySize=auto;html=1;" parent="1" source="5WL3lZxglGsXFXUX4CAb-37" target="5WL3lZxglGsXFXUX4CAb-39" edge="1">
          <mxGeometry relative="1" as="geometry">
            <Array as="points">
              <mxPoint x="1030" y="435"/>
              <mxPoint x="910" y="435"/>
            </Array>
          </mxGeometry>
        </mxCell>
        <mxCell id="5WL3lZxglGsXFXUX4CAb-49" value="" style="edgeStyle=orthogonalEdgeStyle;rounded=0;orthogonalLoop=1;jettySize=auto;html=1;" parent="1" source="5WL3lZxglGsXFXUX4CAb-37" target="5WL3lZxglGsXFXUX4CAb-48" edge="1">
          <mxGeometry relative="1" as="geometry">
            <Array as="points">
              <mxPoint x="1030" y="435"/>
              <mxPoint x="1150" y="435"/>
            </Array>
          </mxGeometry>
        </mxCell>
        <mxCell id="5WL3lZxglGsXFXUX4CAb-37" value="Game Scene" style="rounded=1;whiteSpace=wrap;html=1;" parent="1" vertex="1">
          <mxGeometry x="970" y="355" width="120" height="60" as="geometry"/>
        </mxCell>
        <mxCell id="5WL3lZxglGsXFXUX4CAb-48" value="Launch UI scene simultaneously on top of game scene" style="rounded=1;whiteSpace=wrap;html=1;" parent="1" vertex="1">
          <mxGeometry x="1090" y="445" width="120" height="60" as="geometry"/>
        </mxCell>
        <mxCell id="5WL3lZxglGsXFXUX4CAb-38" value="" style="edgeStyle=orthogonalEdgeStyle;rounded=0;orthogonalLoop=1;jettySize=auto;html=1;entryX=0.5;entryY=0;entryDx=0;entryDy=0;" parent="1" source="5WL3lZxglGsXFXUX4CAb-39" target="5WL3lZxglGsXFXUX4CAb-40" edge="1">
          <mxGeometry relative="1" as="geometry">
            <Array as="points">
              <mxPoint x="910" y="525"/>
              <mxPoint x="830" y="525"/>
            </Array>
          </mxGeometry>
        </mxCell>
        <mxCell id="5WL3lZxglGsXFXUX4CAb-47" value="" style="edgeStyle=orthogonalEdgeStyle;rounded=0;orthogonalLoop=1;jettySize=auto;html=1;entryX=0.5;entryY=0;entryDx=0;entryDy=0;entryPerimeter=0;" parent="1" target="5WL3lZxglGsXFXUX4CAb-46" edge="1">
          <mxGeometry relative="1" as="geometry">
            <mxPoint x="910" y="505" as="sourcePoint"/>
            <Array as="points">
              <mxPoint x="910" y="525"/>
              <mxPoint x="1000" y="525"/>
            </Array>
          </mxGeometry>
        </mxCell>
        <mxCell id="5WL3lZxglGsXFXUX4CAb-39" value="Call images from Preloader scene" style="rounded=1;whiteSpace=wrap;html=1;" parent="1" vertex="1">
          <mxGeometry x="850" y="445" width="120" height="60" as="geometry"/>
        </mxCell>
        <mxCell id="5WL3lZxglGsXFXUX4CAb-46" value="Connect images to player class and enemy class" style="rounded=1;whiteSpace=wrap;html=1;" parent="1" vertex="1">
          <mxGeometry x="940" y="535" width="120" height="60" as="geometry"/>
        </mxCell>
        <mxCell id="5WL3lZxglGsXFXUX4CAb-42" style="edgeStyle=orthogonalEdgeStyle;rounded=0;orthogonalLoop=1;jettySize=auto;html=1;exitX=0.5;exitY=1;exitDx=0;exitDy=0;entryX=0.5;entryY=0;entryDx=0;entryDy=0;" parent="1" source="5WL3lZxglGsXFXUX4CAb-40" target="5WL3lZxglGsXFXUX4CAb-41" edge="1">
          <mxGeometry relative="1" as="geometry">
            <Array as="points">
              <mxPoint x="830" y="615"/>
              <mxPoint x="750" y="615"/>
            </Array>
          </mxGeometry>
        </mxCell>
        <mxCell id="5WL3lZxglGsXFXUX4CAb-44" style="edgeStyle=orthogonalEdgeStyle;rounded=0;orthogonalLoop=1;jettySize=auto;html=1;entryX=0.5;entryY=0;entryDx=0;entryDy=0;" parent="1" source="5WL3lZxglGsXFXUX4CAb-40" target="5WL3lZxglGsXFXUX4CAb-43" edge="1">
          <mxGeometry relative="1" as="geometry">
            <Array as="points">
              <mxPoint x="830" y="615"/>
              <mxPoint x="910" y="615"/>
            </Array>
          </mxGeometry>
        </mxCell>
        <mxCell id="5WL3lZxglGsXFXUX4CAb-40" value="Connect image to interactive&amp;nbsp;buttons" style="rounded=1;whiteSpace=wrap;html=1;" parent="1" vertex="1">
          <mxGeometry x="770" y="535" width="120" height="60" as="geometry"/>
        </mxCell>
        <mxCell id="5WL3lZxglGsXFXUX4CAb-41" value="Home button will launch Menu Scene" style="rounded=1;whiteSpace=wrap;html=1;" parent="1" vertex="1">
          <mxGeometry x="690" y="625" width="120" height="60" as="geometry"/>
        </mxCell>
        <mxCell id="5WL3lZxglGsXFXUX4CAb-43" value="Options button launches Options scene&amp;nbsp;" style="rounded=1;whiteSpace=wrap;html=1;" parent="1" vertex="1">
          <mxGeometry x="850" y="625" width="120" height="60" as="geometry"/>
        </mxCell>
        <mxCell id="qqgmUEQR6ak8owxvvTi3-18" style="edgeStyle=orthogonalEdgeStyle;rounded=0;orthogonalLoop=1;jettySize=auto;html=1;exitX=0.5;exitY=1;exitDx=0;exitDy=0;entryX=0.5;entryY=0;entryDx=0;entryDy=0;" parent="1" source="qqgmUEQR6ak8owxvvTi3-3" target="qqgmUEQR6ak8owxvvTi3-10" edge="1">
          <mxGeometry relative="1" as="geometry">
            <Array as="points">
              <mxPoint x="-620" y="60"/>
              <mxPoint x="-620" y="60"/>
            </Array>
          </mxGeometry>
        </mxCell>
        <mxCell id="qqgmUEQR6ak8owxvvTi3-19" style="edgeStyle=orthogonalEdgeStyle;rounded=0;orthogonalLoop=1;jettySize=auto;html=1;exitX=0.5;exitY=1;exitDx=0;exitDy=0;entryX=0.5;entryY=0;entryDx=0;entryDy=0;" parent="1" source="qqgmUEQR6ak8owxvvTi3-3" target="qqgmUEQR6ak8owxvvTi3-12" edge="1">
          <mxGeometry relative="1" as="geometry">
            <Array as="points">
              <mxPoint x="-620" y="70"/>
              <mxPoint x="-1270" y="70"/>
            </Array>
            <mxPoint x="-661" y="60" as="sourcePoint"/>
          </mxGeometry>
        </mxCell>
        <mxCell id="ZKlI2Zc0H6N3hNEYGNPE-6" value="" style="edgeStyle=orthogonalEdgeStyle;rounded=0;orthogonalLoop=1;jettySize=auto;html=1;exitX=0.5;exitY=1;exitDx=0;exitDy=0;entryX=0.5;entryY=0;entryDx=0;entryDy=0;" parent="1" source="qqgmUEQR6ak8owxvvTi3-3" target="ZKlI2Zc0H6N3hNEYGNPE-5" edge="1">
          <mxGeometry relative="1" as="geometry">
            <Array as="points">
              <mxPoint x="-620" y="70"/>
              <mxPoint x="100" y="70"/>
            </Array>
          </mxGeometry>
        </mxCell>
        <mxCell id="VFqi8HGkt-6UIhwy1R85-14" style="edgeStyle=orthogonalEdgeStyle;rounded=0;orthogonalLoop=1;jettySize=auto;html=1;exitX=0.5;exitY=1;exitDx=0;exitDy=0;entryX=0.5;entryY=0;entryDx=0;entryDy=0;" parent="1" source="qqgmUEQR6ak8owxvvTi3-3" target="VFqi8HGkt-6UIhwy1R85-4" edge="1">
          <mxGeometry relative="1" as="geometry">
            <Array as="points">
              <mxPoint x="-620" y="70"/>
              <mxPoint x="-140" y="70"/>
            </Array>
          </mxGeometry>
        </mxCell>
        <mxCell id="VFqi8HGkt-6UIhwy1R85-15" style="edgeStyle=orthogonalEdgeStyle;rounded=0;orthogonalLoop=1;jettySize=auto;html=1;exitX=0.5;exitY=1;exitDx=0;exitDy=0;entryX=0.5;entryY=0;entryDx=0;entryDy=0;" parent="1" source="qqgmUEQR6ak8owxvvTi3-3" target="xv5lyWpSyrCkxbT2559y-5" edge="1">
          <mxGeometry relative="1" as="geometry">
            <Array as="points">
              <mxPoint x="-620" y="70"/>
              <mxPoint x="-1060" y="70"/>
            </Array>
          </mxGeometry>
        </mxCell>
        <mxCell id="qqgmUEQR6ak8owxvvTi3-3" value="&lt;font style=&quot;font-size: 12px&quot;&gt;Fall of&amp;nbsp;&lt;span style=&quot;color: rgb(34 , 34 , 34) ; font-family: &amp;#34;arial&amp;#34; , sans-serif ; text-align: left&quot;&gt;Ωmega&lt;/span&gt;&lt;/font&gt;" style="rounded=1;whiteSpace=wrap;html=1;fillColor=#ffcccc;strokeColor=#36393d;" parent="1" vertex="1">
          <mxGeometry x="-680" width="120" height="60" as="geometry"/>
        </mxCell>
        <mxCell id="xv5lyWpSyrCkxbT2559y-8" value="" style="edgeStyle=orthogonalEdgeStyle;rounded=0;orthogonalLoop=1;jettySize=auto;html=1;exitX=0.25;exitY=1;exitDx=0;exitDy=0;" parent="1" source="xv5lyWpSyrCkxbT2559y-5" target="xv5lyWpSyrCkxbT2559y-7" edge="1">
          <mxGeometry relative="1" as="geometry">
            <Array as="points">
              <mxPoint x="-1090" y="200"/>
            </Array>
          </mxGeometry>
        </mxCell>
        <mxCell id="xv5lyWpSyrCkxbT2559y-5" value="Controls" style="rounded=1;whiteSpace=wrap;html=1;fillColor=#E1D5E7;strokeColor=#9673a6;" parent="1" vertex="1">
          <mxGeometry x="-1120" y="80" width="120" height="60" as="geometry"/>
        </mxCell>
        <mxCell id="xv5lyWpSyrCkxbT2559y-7" value="Mouse" style="rounded=1;whiteSpace=wrap;html=1;fillColor=#dae8fc;strokeColor=#6c8ebf;" parent="1" vertex="1">
          <mxGeometry x="-1080" y="170" width="120" height="60" as="geometry"/>
        </mxCell>
        <mxCell id="ZKlI2Zc0H6N3hNEYGNPE-8" value="" style="edgeStyle=orthogonalEdgeStyle;rounded=0;orthogonalLoop=1;jettySize=auto;html=1;entryX=0;entryY=0.5;entryDx=0;entryDy=0;" parent="1" source="ZKlI2Zc0H6N3hNEYGNPE-5" target="ZKlI2Zc0H6N3hNEYGNPE-7" edge="1">
          <mxGeometry relative="1" as="geometry">
            <Array as="points">
              <mxPoint x="100" y="200"/>
            </Array>
          </mxGeometry>
        </mxCell>
        <mxCell id="xv5lyWpSyrCkxbT2559y-2" value="" style="edgeStyle=orthogonalEdgeStyle;rounded=0;orthogonalLoop=1;jettySize=auto;html=1;entryX=0;entryY=0.5;entryDx=0;entryDy=0;" parent="1" source="ZKlI2Zc0H6N3hNEYGNPE-5" target="xv5lyWpSyrCkxbT2559y-1" edge="1">
          <mxGeometry relative="1" as="geometry">
            <Array as="points">
              <mxPoint x="100" y="280"/>
            </Array>
          </mxGeometry>
        </mxCell>
        <mxCell id="akF4ewOna4r7wW4yMPLq-2" value="" style="edgeStyle=orthogonalEdgeStyle;rounded=0;orthogonalLoop=1;jettySize=auto;html=1;" parent="1" source="ZKlI2Zc0H6N3hNEYGNPE-5" target="akF4ewOna4r7wW4yMPLq-1" edge="1">
          <mxGeometry relative="1" as="geometry">
            <Array as="points">
              <mxPoint x="100" y="340"/>
              <mxPoint x="100" y="340"/>
            </Array>
          </mxGeometry>
        </mxCell>
        <mxCell id="ZKlI2Zc0H6N3hNEYGNPE-5" value="Scoring" style="rounded=1;whiteSpace=wrap;html=1;fillColor=#e1d5e7;strokeColor=#9673a6;" parent="1" vertex="1">
          <mxGeometry x="40" y="80" width="120" height="60" as="geometry"/>
        </mxCell>
        <mxCell id="akF4ewOna4r7wW4yMPLq-1" value="Points from eliminating enemies" style="rounded=1;whiteSpace=wrap;html=1;fillColor=#dae8fc;strokeColor=#6c8ebf;" parent="1" vertex="1">
          <mxGeometry x="110" y="330" width="120" height="60" as="geometry"/>
        </mxCell>
        <mxCell id="xv5lyWpSyrCkxbT2559y-1" value="New high score" style="rounded=1;whiteSpace=wrap;html=1;fillColor=#dae8fc;strokeColor=#6c8ebf;" parent="1" vertex="1">
          <mxGeometry x="110" y="250" width="120" height="60" as="geometry"/>
        </mxCell>
        <mxCell id="ZKlI2Zc0H6N3hNEYGNPE-7" value="Display current score&lt;br&gt;&amp;amp; high score" style="rounded=1;whiteSpace=wrap;html=1;fillColor=#dae8fc;strokeColor=#6c8ebf;" parent="1" vertex="1">
          <mxGeometry x="110" y="170" width="120" height="60" as="geometry"/>
        </mxCell>
        <mxCell id="qqgmUEQR6ak8owxvvTi3-37" style="edgeStyle=orthogonalEdgeStyle;rounded=0;orthogonalLoop=1;jettySize=auto;html=1;exitX=0.25;exitY=1;exitDx=0;exitDy=0;entryX=0;entryY=0.5;entryDx=0;entryDy=0;" parent="1" source="qqgmUEQR6ak8owxvvTi3-4" target="qqgmUEQR6ak8owxvvTi3-35" edge="1">
          <mxGeometry relative="1" as="geometry">
            <Array as="points">
              <mxPoint x="-730" y="280"/>
            </Array>
          </mxGeometry>
        </mxCell>
        <mxCell id="akF4ewOna4r7wW4yMPLq-5" value="" style="edgeStyle=orthogonalEdgeStyle;rounded=0;orthogonalLoop=1;jettySize=auto;html=1;" parent="1" source="qqgmUEQR6ak8owxvvTi3-4" target="akF4ewOna4r7wW4yMPLq-4" edge="1">
          <mxGeometry relative="1" as="geometry">
            <Array as="points">
              <mxPoint x="-730" y="360"/>
            </Array>
          </mxGeometry>
        </mxCell>
        <mxCell id="P8dMCxh2PTXHV4TIlTyM-2" value="" style="edgeStyle=orthogonalEdgeStyle;rounded=0;orthogonalLoop=1;jettySize=auto;html=1;entryX=0;entryY=0.5;entryDx=0;entryDy=0;" parent="1" source="qqgmUEQR6ak8owxvvTi3-4" target="P8dMCxh2PTXHV4TIlTyM-3" edge="1">
          <mxGeometry relative="1" as="geometry">
            <Array as="points">
              <mxPoint x="-730" y="440"/>
            </Array>
          </mxGeometry>
        </mxCell>
        <mxCell id="P8dMCxh2PTXHV4TIlTyM-4" value="" style="edgeStyle=orthogonalEdgeStyle;rounded=0;orthogonalLoop=1;jettySize=auto;html=1;entryX=0;entryY=0.5;entryDx=0;entryDy=0;" parent="1" source="qqgmUEQR6ak8owxvvTi3-4" target="P8dMCxh2PTXHV4TIlTyM-1" edge="1">
          <mxGeometry relative="1" as="geometry">
            <Array as="points">
              <mxPoint x="-730" y="520"/>
            </Array>
          </mxGeometry>
        </mxCell>
        <mxCell id="P8dMCxh2PTXHV4TIlTyM-7" value="" style="edgeStyle=orthogonalEdgeStyle;rounded=0;orthogonalLoop=1;jettySize=auto;html=1;" parent="1" source="qqgmUEQR6ak8owxvvTi3-4" target="P8dMCxh2PTXHV4TIlTyM-6" edge="1">
          <mxGeometry relative="1" as="geometry">
            <Array as="points">
              <mxPoint x="-730" y="600"/>
            </Array>
          </mxGeometry>
        </mxCell>
        <mxCell id="qqgmUEQR6ak8owxvvTi3-4" value="Game" style="rounded=1;whiteSpace=wrap;html=1;fillColor=#dae8fc;strokeColor=#6c8ebf;" parent="1" vertex="1">
          <mxGeometry x="-760" y="170" width="120" height="60" as="geometry"/>
        </mxCell>
        <mxCell id="P8dMCxh2PTXHV4TIlTyM-6" value="Update player &amp;amp; enemy stats" style="rounded=1;whiteSpace=wrap;html=1;fillColor=#fff2cc;strokeColor=#d6b656;" parent="1" vertex="1">
          <mxGeometry x="-720" y="570" width="120" height="60" as="geometry"/>
        </mxCell>
        <mxCell id="P8dMCxh2PTXHV4TIlTyM-3" value="Turn (player or enemy&#39;s turn)" style="rounded=1;whiteSpace=wrap;html=1;fillColor=#fff2cc;strokeColor=#d6b656;" parent="1" vertex="1">
          <mxGeometry x="-720" y="410" width="120" height="60" as="geometry"/>
        </mxCell>
        <mxCell id="P8dMCxh2PTXHV4TIlTyM-1" value="Attack / defend options" style="rounded=1;whiteSpace=wrap;html=1;fillColor=#fff2cc;strokeColor=#d6b656;" parent="1" vertex="1">
          <mxGeometry x="-720" y="490" width="120" height="60" as="geometry"/>
        </mxCell>
        <mxCell id="akF4ewOna4r7wW4yMPLq-4" value="Load random enemy" style="rounded=1;whiteSpace=wrap;html=1;fillColor=#fff2cc;strokeColor=#d6b656;" parent="1" vertex="1">
          <mxGeometry x="-720" y="330" width="120" height="60" as="geometry"/>
        </mxCell>
        <mxCell id="uuRdIvsvaQWeYH1buY8k-4" value="" style="edgeStyle=orthogonalEdgeStyle;rounded=0;orthogonalLoop=1;jettySize=auto;html=1;exitX=0.25;exitY=1;exitDx=0;exitDy=0;" parent="1" source="qqgmUEQR6ak8owxvvTi3-5" target="uuRdIvsvaQWeYH1buY8k-3" edge="1">
          <mxGeometry relative="1" as="geometry">
            <Array as="points">
              <mxPoint x="-570" y="280"/>
            </Array>
          </mxGeometry>
        </mxCell>
        <mxCell id="qqgmUEQR6ak8owxvvTi3-5" value="Options" style="rounded=1;whiteSpace=wrap;html=1;fillColor=#dae8fc;strokeColor=#6c8ebf;" parent="1" vertex="1">
          <mxGeometry x="-600" y="170" width="120" height="60" as="geometry"/>
        </mxCell>
        <mxCell id="uuRdIvsvaQWeYH1buY8k-3" value="Fullscreen" style="rounded=1;whiteSpace=wrap;html=1;fillColor=#fff2cc;strokeColor=#d6b656;" parent="1" vertex="1">
          <mxGeometry x="-560" y="250" width="120" height="60" as="geometry"/>
        </mxCell>
        <mxCell id="qqgmUEQR6ak8owxvvTi3-29" value="" style="edgeStyle=orthogonalEdgeStyle;rounded=0;orthogonalLoop=1;jettySize=auto;html=1;exitX=0.25;exitY=1;exitDx=0;exitDy=0;entryX=0;entryY=0.5;entryDx=0;entryDy=0;" parent="1" source="qqgmUEQR6ak8owxvvTi3-6" target="qqgmUEQR6ak8owxvvTi3-28" edge="1">
          <mxGeometry relative="1" as="geometry"/>
        </mxCell>
        <mxCell id="qqgmUEQR6ak8owxvvTi3-6" value="Menu" style="rounded=1;whiteSpace=wrap;html=1;fillColor=#dae8fc;strokeColor=#6c8ebf;" parent="1" vertex="1">
          <mxGeometry x="-920" y="170" width="120" height="60" as="geometry"/>
        </mxCell>
        <mxCell id="qqgmUEQR6ak8owxvvTi3-31" value="" style="edgeStyle=orthogonalEdgeStyle;rounded=0;orthogonalLoop=1;jettySize=auto;html=1;exitX=0.25;exitY=1;exitDx=0;exitDy=0;" parent="1" source="qqgmUEQR6ak8owxvvTi3-6" target="qqgmUEQR6ak8owxvvTi3-30" edge="1">
          <mxGeometry relative="1" as="geometry">
            <Array as="points">
              <mxPoint x="-890" y="360"/>
            </Array>
          </mxGeometry>
        </mxCell>
        <mxCell id="qqgmUEQR6ak8owxvvTi3-28" value="Play" style="rounded=1;whiteSpace=wrap;html=1;fillColor=#fff2cc;strokeColor=#d6b656;" parent="1" vertex="1">
          <mxGeometry x="-870" y="250" width="120" height="60" as="geometry"/>
        </mxCell>
        <mxCell id="qqgmUEQR6ak8owxvvTi3-30" value="Options" style="rounded=1;whiteSpace=wrap;html=1;fillColor=#fff2cc;strokeColor=#d6b656;" parent="1" vertex="1">
          <mxGeometry x="-870" y="330" width="120" height="60" as="geometry"/>
        </mxCell>
        <mxCell id="uuRdIvsvaQWeYH1buY8k-8" value="" style="edgeStyle=orthogonalEdgeStyle;rounded=0;orthogonalLoop=1;jettySize=auto;html=1;entryX=0;entryY=0.5;entryDx=0;entryDy=0;exitX=0.17;exitY=1.03;exitDx=0;exitDy=0;exitPerimeter=0;" parent="1" source="qqgmUEQR6ak8owxvvTi3-7" target="uuRdIvsvaQWeYH1buY8k-7" edge="1">
          <mxGeometry relative="1" as="geometry">
            <Array as="points">
              <mxPoint x="-420" y="280"/>
            </Array>
          </mxGeometry>
        </mxCell>
        <mxCell id="qqgmUEQR6ak8owxvvTi3-7" value="Game Over" style="rounded=1;whiteSpace=wrap;html=1;fillColor=#dae8fc;strokeColor=#6c8ebf;" parent="1" vertex="1">
          <mxGeometry x="-440" y="170" width="120" height="60" as="geometry"/>
        </mxCell>
        <mxCell id="uuRdIvsvaQWeYH1buY8k-7" value="Game over screen" style="rounded=1;whiteSpace=wrap;html=1;fillColor=#fff2cc;strokeColor=#d6b656;" parent="1" vertex="1">
          <mxGeometry x="-410" y="250" width="120" height="60" as="geometry"/>
        </mxCell>
        <mxCell id="qqgmUEQR6ak8owxvvTi3-20" style="edgeStyle=orthogonalEdgeStyle;rounded=0;orthogonalLoop=1;jettySize=auto;html=1;exitX=0.5;exitY=1;exitDx=0;exitDy=0;entryX=0.5;entryY=0;entryDx=0;entryDy=0;" parent="1" source="qqgmUEQR6ak8owxvvTi3-10" target="qqgmUEQR6ak8owxvvTi3-4" edge="1">
          <mxGeometry relative="1" as="geometry">
            <Array as="points">
              <mxPoint x="-620" y="160"/>
              <mxPoint x="-700" y="160"/>
            </Array>
          </mxGeometry>
        </mxCell>
        <mxCell id="qqgmUEQR6ak8owxvvTi3-21" style="edgeStyle=orthogonalEdgeStyle;rounded=0;orthogonalLoop=1;jettySize=auto;html=1;exitX=0.5;exitY=1;exitDx=0;exitDy=0;entryX=0.5;entryY=0;entryDx=0;entryDy=0;" parent="1" source="qqgmUEQR6ak8owxvvTi3-10" target="qqgmUEQR6ak8owxvvTi3-6" edge="1">
          <mxGeometry relative="1" as="geometry">
            <Array as="points">
              <mxPoint x="-620" y="160"/>
              <mxPoint x="-860" y="160"/>
            </Array>
          </mxGeometry>
        </mxCell>
        <mxCell id="qqgmUEQR6ak8owxvvTi3-22" style="edgeStyle=orthogonalEdgeStyle;rounded=0;orthogonalLoop=1;jettySize=auto;html=1;exitX=0.5;exitY=1;exitDx=0;exitDy=0;entryX=0.5;entryY=0;entryDx=0;entryDy=0;" parent="1" source="qqgmUEQR6ak8owxvvTi3-10" target="qqgmUEQR6ak8owxvvTi3-5" edge="1">
          <mxGeometry relative="1" as="geometry">
            <Array as="points">
              <mxPoint x="-620" y="160"/>
              <mxPoint x="-540" y="160"/>
            </Array>
          </mxGeometry>
        </mxCell>
        <mxCell id="qqgmUEQR6ak8owxvvTi3-23" style="edgeStyle=orthogonalEdgeStyle;rounded=0;orthogonalLoop=1;jettySize=auto;html=1;exitX=0.5;exitY=1;exitDx=0;exitDy=0;entryX=0.5;entryY=0;entryDx=0;entryDy=0;" parent="1" source="qqgmUEQR6ak8owxvvTi3-10" target="qqgmUEQR6ak8owxvvTi3-7" edge="1">
          <mxGeometry relative="1" as="geometry">
            <Array as="points">
              <mxPoint x="-620" y="160"/>
              <mxPoint x="-380" y="160"/>
            </Array>
          </mxGeometry>
        </mxCell>
        <mxCell id="qqgmUEQR6ak8owxvvTi3-10" value="Scenes" style="rounded=1;whiteSpace=wrap;html=1;fillColor=#e1d5e7;strokeColor=#9673a6;" parent="1" vertex="1">
          <mxGeometry x="-680" y="80" width="120" height="60" as="geometry"/>
        </mxCell>
        <mxCell id="qqgmUEQR6ak8owxvvTi3-26" style="edgeStyle=orthogonalEdgeStyle;rounded=0;orthogonalLoop=1;jettySize=auto;html=1;exitX=0.25;exitY=1;exitDx=0;exitDy=0;entryX=0;entryY=0.5;entryDx=0;entryDy=0;" parent="1" source="qqgmUEQR6ak8owxvvTi3-12" target="qqgmUEQR6ak8owxvvTi3-24" edge="1">
          <mxGeometry relative="1" as="geometry">
            <Array as="points">
              <mxPoint x="-1300" y="200"/>
            </Array>
          </mxGeometry>
        </mxCell>
        <mxCell id="ZKlI2Zc0H6N3hNEYGNPE-3" value="" style="edgeStyle=orthogonalEdgeStyle;rounded=0;orthogonalLoop=1;jettySize=auto;html=1;exitX=0.25;exitY=1;exitDx=0;exitDy=0;entryX=0;entryY=0.5;entryDx=0;entryDy=0;" parent="1" source="qqgmUEQR6ak8owxvvTi3-12" target="ZKlI2Zc0H6N3hNEYGNPE-2" edge="1">
          <mxGeometry relative="1" as="geometry">
            <Array as="points">
              <mxPoint x="-1300" y="280"/>
            </Array>
            <mxPoint x="-1260" y="280" as="targetPoint"/>
          </mxGeometry>
        </mxCell>
        <mxCell id="qqgmUEQR6ak8owxvvTi3-12" value="Initialisation" style="rounded=1;whiteSpace=wrap;html=1;fillColor=#e1d5e7;strokeColor=#9673a6;" parent="1" vertex="1">
          <mxGeometry x="-1330" y="80" width="120" height="60" as="geometry"/>
        </mxCell>
        <mxCell id="ZKlI2Zc0H6N3hNEYGNPE-2" value="Sprites" style="rounded=1;whiteSpace=wrap;html=1;fillColor=#dae8fc;strokeColor=#6c8ebf;" parent="1" vertex="1">
          <mxGeometry x="-1289" y="250" width="120" height="60" as="geometry"/>
        </mxCell>
        <mxCell id="qqgmUEQR6ak8owxvvTi3-24" value="Images" style="rounded=1;whiteSpace=wrap;html=1;fillColor=#dae8fc;strokeColor=#6c8ebf;" parent="1" vertex="1">
          <mxGeometry x="-1289" y="170" width="120" height="60" as="geometry"/>
        </mxCell>
        <mxCell id="qqgmUEQR6ak8owxvvTi3-35" value="Load player" style="rounded=1;whiteSpace=wrap;html=1;fillColor=#fff2cc;strokeColor=#d6b656;" parent="1" vertex="1">
          <mxGeometry x="-720" y="250" width="120" height="60" as="geometry"/>
        </mxCell>
        <mxCell id="VFqi8HGkt-6UIhwy1R85-1" value="" style="edgeStyle=orthogonalEdgeStyle;rounded=0;orthogonalLoop=1;jettySize=auto;html=1;entryX=0.5;entryY=0;entryDx=0;entryDy=0;exitX=0.5;exitY=1;exitDx=0;exitDy=0;" parent="1" source="VFqi8HGkt-6UIhwy1R85-4" target="VFqi8HGkt-6UIhwy1R85-7" edge="1">
          <mxGeometry relative="1" as="geometry">
            <Array as="points">
              <mxPoint x="-140" y="160"/>
              <mxPoint x="-61" y="160"/>
            </Array>
          </mxGeometry>
        </mxCell>
        <mxCell id="VFqi8HGkt-6UIhwy1R85-2" value="" style="edgeStyle=orthogonalEdgeStyle;rounded=0;orthogonalLoop=1;jettySize=auto;html=1;entryX=0.5;entryY=0;entryDx=0;entryDy=0;exitX=0.5;exitY=1;exitDx=0;exitDy=0;" parent="1" source="VFqi8HGkt-6UIhwy1R85-4" target="VFqi8HGkt-6UIhwy1R85-6" edge="1">
          <mxGeometry relative="1" as="geometry">
            <Array as="points">
              <mxPoint x="-140" y="160"/>
              <mxPoint x="-220" y="160"/>
            </Array>
          </mxGeometry>
        </mxCell>
        <mxCell id="VFqi8HGkt-6UIhwy1R85-3" value="" style="edgeStyle=orthogonalEdgeStyle;rounded=0;orthogonalLoop=1;jettySize=auto;html=1;exitX=0.25;exitY=1;exitDx=0;exitDy=0;entryX=0;entryY=0.5;entryDx=0;entryDy=0;" parent="1" source="VFqi8HGkt-6UIhwy1R85-6" target="VFqi8HGkt-6UIhwy1R85-5" edge="1">
          <mxGeometry relative="1" as="geometry">
            <Array as="points">
              <mxPoint x="-251" y="280"/>
            </Array>
          </mxGeometry>
        </mxCell>
        <mxCell id="VFqi8HGkt-6UIhwy1R85-4" value="Classes" style="rounded=1;whiteSpace=wrap;html=1;fillColor=#e1d5e7;strokeColor=#9673a6;" parent="1" vertex="1">
          <mxGeometry x="-200" y="80" width="120" height="60" as="geometry"/>
        </mxCell>
        <mxCell id="VFqi8HGkt-6UIhwy1R85-5" value="Player" style="rounded=1;whiteSpace=wrap;html=1;fillColor=#fff2cc;strokeColor=#d6b656;" parent="1" vertex="1">
          <mxGeometry x="-241.12" y="250" width="120" height="60" as="geometry"/>
        </mxCell>
        <mxCell id="VFqi8HGkt-6UIhwy1R85-13" style="edgeStyle=orthogonalEdgeStyle;rounded=0;orthogonalLoop=1;jettySize=auto;html=1;exitX=0.25;exitY=1;exitDx=0;exitDy=0;entryX=0;entryY=0.5;entryDx=0;entryDy=0;" parent="1" source="VFqi8HGkt-6UIhwy1R85-6" target="VFqi8HGkt-6UIhwy1R85-12" edge="1">
          <mxGeometry relative="1" as="geometry">
            <Array as="points">
              <mxPoint x="-251" y="360"/>
            </Array>
          </mxGeometry>
        </mxCell>
        <mxCell id="VFqi8HGkt-6UIhwy1R85-6" value="Sprite" style="rounded=1;whiteSpace=wrap;html=1;fillColor=#dae8fc;strokeColor=#6c8ebf;" parent="1" vertex="1">
          <mxGeometry x="-280" y="170" width="120" height="60" as="geometry"/>
        </mxCell>
        <mxCell id="VFqi8HGkt-6UIhwy1R85-11" style="edgeStyle=orthogonalEdgeStyle;rounded=0;orthogonalLoop=1;jettySize=auto;html=1;exitX=0.25;exitY=1;exitDx=0;exitDy=0;entryX=0;entryY=0.5;entryDx=0;entryDy=0;" parent="1" source="VFqi8HGkt-6UIhwy1R85-7" target="VFqi8HGkt-6UIhwy1R85-9" edge="1">
          <mxGeometry relative="1" as="geometry">
            <Array as="points">
              <mxPoint x="-92" y="280"/>
            </Array>
          </mxGeometry>
        </mxCell>
        <mxCell id="VFqi8HGkt-6UIhwy1R85-7" value="Health display" style="rounded=1;whiteSpace=wrap;html=1;fillColor=#dae8fc;strokeColor=#6c8ebf;" parent="1" vertex="1">
          <mxGeometry x="-121.12" y="170" width="120" height="60" as="geometry"/>
        </mxCell>
        <mxCell id="VFqi8HGkt-6UIhwy1R85-9" value="Mana Display" style="rounded=1;whiteSpace=wrap;html=1;fillColor=#fff2cc;strokeColor=#d6b656;" parent="1" vertex="1">
          <mxGeometry x="-80" y="250" width="120" height="60" as="geometry"/>
        </mxCell>
        <mxCell id="VFqi8HGkt-6UIhwy1R85-12" value="Enemy" style="rounded=1;whiteSpace=wrap;html=1;fillColor=#fff2cc;strokeColor=#d6b656;" parent="1" vertex="1">
          <mxGeometry x="-241.12" y="330" width="120" height="60" as="geometry"/>
        </mxCell>
        <mxCell id="IInuwYmAigKsAIb0P9fu-5" value="" style="edgeStyle=orthogonalEdgeStyle;rounded=0;orthogonalLoop=1;jettySize=auto;html=1;exitX=0.5;exitY=1;exitDx=0;exitDy=0;fillColor=#dae8fc;strokeColor=#000000;" edge="1" parent="1" source="IInuwYmAigKsAIb0P9fu-3" target="IInuwYmAigKsAIb0P9fu-4">
          <mxGeometry relative="1" as="geometry"/>
        </mxCell>
        <mxCell id="IInuwYmAigKsAIb0P9fu-7" style="edgeStyle=orthogonalEdgeStyle;rounded=0;orthogonalLoop=1;jettySize=auto;html=1;exitX=0.5;exitY=1;exitDx=0;exitDy=0;entryX=0.5;entryY=0;entryDx=0;entryDy=0;fillColor=#dae8fc;strokeColor=#000000;" edge="1" parent="1" source="IInuwYmAigKsAIb0P9fu-3" target="IInuwYmAigKsAIb0P9fu-6">
          <mxGeometry relative="1" as="geometry"/>
        </mxCell>
        <mxCell id="IInuwYmAigKsAIb0P9fu-9" style="edgeStyle=orthogonalEdgeStyle;rounded=0;orthogonalLoop=1;jettySize=auto;html=1;entryX=0.5;entryY=0;entryDx=0;entryDy=0;exitX=0.5;exitY=1;exitDx=0;exitDy=0;fillColor=#dae8fc;strokeColor=#000000;" edge="1" parent="1" source="IInuwYmAigKsAIb0P9fu-3" target="IInuwYmAigKsAIb0P9fu-8">
          <mxGeometry relative="1" as="geometry">
            <mxPoint x="-400" y="770" as="sourcePoint"/>
          </mxGeometry>
        </mxCell>
        <mxCell id="IInuwYmAigKsAIb0P9fu-30" style="edgeStyle=orthogonalEdgeStyle;rounded=0;orthogonalLoop=1;jettySize=auto;html=1;exitX=0.5;exitY=1;exitDx=0;exitDy=0;entryX=0.5;entryY=0;entryDx=0;entryDy=0;strokeColor=#000000;" edge="1" parent="1" source="IInuwYmAigKsAIb0P9fu-3" target="IInuwYmAigKsAIb0P9fu-27">
          <mxGeometry relative="1" as="geometry"/>
        </mxCell>
        <mxCell id="IInuwYmAigKsAIb0P9fu-3" value="&lt;font style=&quot;font-size: 12px&quot;&gt;Fall of&amp;nbsp;&lt;span style=&quot;color: rgb(34 , 34 , 34) ; font-family: &amp;#34;arial&amp;#34; , sans-serif ; text-align: left&quot;&gt;Ωmega&lt;/span&gt;&lt;/font&gt;" style="rounded=1;whiteSpace=wrap;html=1;fillColor=#dae8fc;strokeColor=#000000;" vertex="1" parent="1">
          <mxGeometry x="-460" y="700" width="120" height="60" as="geometry"/>
        </mxCell>
        <mxCell id="IInuwYmAigKsAIb0P9fu-20" style="edgeStyle=orthogonalEdgeStyle;rounded=0;orthogonalLoop=1;jettySize=auto;html=1;exitX=0.25;exitY=1;exitDx=0;exitDy=0;entryX=0;entryY=0.5;entryDx=0;entryDy=0;fillColor=#dae8fc;strokeColor=#000000;" edge="1" parent="1" source="IInuwYmAigKsAIb0P9fu-4" target="IInuwYmAigKsAIb0P9fu-19">
          <mxGeometry relative="1" as="geometry">
            <Array as="points">
              <mxPoint x="-730" y="950"/>
            </Array>
          </mxGeometry>
        </mxCell>
        <mxCell id="IInuwYmAigKsAIb0P9fu-4" value="Control" style="rounded=1;whiteSpace=wrap;html=1;fillColor=#dae8fc;strokeColor=#000000;" vertex="1" parent="1">
          <mxGeometry x="-760" y="840" width="120" height="60" as="geometry"/>
        </mxCell>
        <mxCell id="IInuwYmAigKsAIb0P9fu-11" value="" style="edgeStyle=orthogonalEdgeStyle;rounded=0;orthogonalLoop=1;jettySize=auto;html=1;entryX=0;entryY=0.5;entryDx=0;entryDy=0;exitX=0.25;exitY=1;exitDx=0;exitDy=0;fillColor=#dae8fc;strokeColor=#000000;" edge="1" parent="1" source="IInuwYmAigKsAIb0P9fu-6" target="IInuwYmAigKsAIb0P9fu-10">
          <mxGeometry relative="1" as="geometry">
            <mxPoint x="-540" y="904" as="sourcePoint"/>
            <Array as="points">
              <mxPoint x="-530" y="950"/>
            </Array>
          </mxGeometry>
        </mxCell>
        <mxCell id="IInuwYmAigKsAIb0P9fu-12" style="edgeStyle=orthogonalEdgeStyle;rounded=0;orthogonalLoop=1;jettySize=auto;html=1;exitX=0.25;exitY=1;exitDx=0;exitDy=0;entryX=0;entryY=0.5;entryDx=0;entryDy=0;fillColor=#dae8fc;strokeColor=#000000;" edge="1" parent="1" source="IInuwYmAigKsAIb0P9fu-6" target="IInuwYmAigKsAIb0P9fu-13">
          <mxGeometry relative="1" as="geometry">
            <mxPoint x="-530.5294117647059" y="1040" as="targetPoint"/>
            <Array as="points">
              <mxPoint x="-530" y="1030"/>
            </Array>
          </mxGeometry>
        </mxCell>
        <mxCell id="IInuwYmAigKsAIb0P9fu-16" style="edgeStyle=orthogonalEdgeStyle;rounded=0;orthogonalLoop=1;jettySize=auto;html=1;exitX=0.25;exitY=1;exitDx=0;exitDy=0;entryX=0;entryY=0.5;entryDx=0;entryDy=0;fillColor=#dae8fc;strokeColor=#000000;" edge="1" parent="1" source="IInuwYmAigKsAIb0P9fu-6" target="IInuwYmAigKsAIb0P9fu-15">
          <mxGeometry relative="1" as="geometry">
            <Array as="points">
              <mxPoint x="-530" y="1110"/>
            </Array>
          </mxGeometry>
        </mxCell>
        <mxCell id="IInuwYmAigKsAIb0P9fu-18" style="edgeStyle=orthogonalEdgeStyle;rounded=0;orthogonalLoop=1;jettySize=auto;html=1;exitX=0.25;exitY=1;exitDx=0;exitDy=0;entryX=0;entryY=0.5;entryDx=0;entryDy=0;fillColor=#dae8fc;strokeColor=#000000;" edge="1" parent="1" source="IInuwYmAigKsAIb0P9fu-6" target="IInuwYmAigKsAIb0P9fu-17">
          <mxGeometry relative="1" as="geometry">
            <Array as="points">
              <mxPoint x="-530" y="1190"/>
            </Array>
          </mxGeometry>
        </mxCell>
        <mxCell id="IInuwYmAigKsAIb0P9fu-6" value="Game Scene" style="rounded=1;whiteSpace=wrap;html=1;fillColor=#dae8fc;strokeColor=#000000;" vertex="1" parent="1">
          <mxGeometry x="-560" y="840" width="120" height="60" as="geometry"/>
        </mxCell>
        <mxCell id="IInuwYmAigKsAIb0P9fu-10" value="Menu" style="rounded=1;whiteSpace=wrap;html=1;fillColor=#dae8fc;strokeColor=#000000;" vertex="1" parent="1">
          <mxGeometry x="-520" y="920" width="120" height="60" as="geometry"/>
        </mxCell>
        <mxCell id="IInuwYmAigKsAIb0P9fu-23" style="edgeStyle=orthogonalEdgeStyle;rounded=0;orthogonalLoop=1;jettySize=auto;html=1;exitX=0.25;exitY=1;exitDx=0;exitDy=0;entryX=0;entryY=0.5;entryDx=0;entryDy=0;strokeColor=#000000;" edge="1" parent="1" source="IInuwYmAigKsAIb0P9fu-8" target="IInuwYmAigKsAIb0P9fu-21">
          <mxGeometry relative="1" as="geometry">
            <Array as="points">
              <mxPoint x="-328.88" y="950"/>
            </Array>
          </mxGeometry>
        </mxCell>
        <mxCell id="IInuwYmAigKsAIb0P9fu-24" style="edgeStyle=orthogonalEdgeStyle;rounded=0;orthogonalLoop=1;jettySize=auto;html=1;exitX=0.25;exitY=1;exitDx=0;exitDy=0;entryX=0;entryY=0.5;entryDx=0;entryDy=0;strokeColor=#000000;" edge="1" parent="1" source="IInuwYmAigKsAIb0P9fu-8" target="IInuwYmAigKsAIb0P9fu-22">
          <mxGeometry relative="1" as="geometry">
            <Array as="points">
              <mxPoint x="-328.88" y="1030"/>
            </Array>
          </mxGeometry>
        </mxCell>
        <mxCell id="IInuwYmAigKsAIb0P9fu-8" value="Scoring" style="rounded=1;whiteSpace=wrap;html=1;fillColor=#dae8fc;strokeColor=#000000;" vertex="1" parent="1">
          <mxGeometry x="-358.88" y="840" width="120" height="60" as="geometry"/>
        </mxCell>
        <mxCell id="IInuwYmAigKsAIb0P9fu-13" value="Options" style="rounded=1;whiteSpace=wrap;html=1;fillColor=#dae8fc;strokeColor=#000000;" vertex="1" parent="1">
          <mxGeometry x="-520" y="1000" width="120" height="60" as="geometry"/>
        </mxCell>
        <mxCell id="IInuwYmAigKsAIb0P9fu-15" value="Game" style="rounded=1;whiteSpace=wrap;html=1;fillColor=#dae8fc;strokeColor=#000000;" vertex="1" parent="1">
          <mxGeometry x="-520" y="1080" width="120" height="60" as="geometry"/>
        </mxCell>
        <mxCell id="IInuwYmAigKsAIb0P9fu-17" value="Game over" style="rounded=1;whiteSpace=wrap;html=1;fillColor=#dae8fc;strokeColor=#000000;" vertex="1" parent="1">
          <mxGeometry x="-520" y="1160" width="120" height="60" as="geometry"/>
        </mxCell>
        <mxCell id="IInuwYmAigKsAIb0P9fu-19" value="Mouse" style="rounded=1;whiteSpace=wrap;html=1;fillColor=#dae8fc;strokeColor=#000000;" vertex="1" parent="1">
          <mxGeometry x="-720" y="920" width="120" height="60" as="geometry"/>
        </mxCell>
        <mxCell id="IInuwYmAigKsAIb0P9fu-21" value="Current score" style="rounded=1;whiteSpace=wrap;html=1;fillColor=#dae8fc;strokeColor=#000000;" vertex="1" parent="1">
          <mxGeometry x="-320" y="920" width="120" height="60" as="geometry"/>
        </mxCell>
        <mxCell id="IInuwYmAigKsAIb0P9fu-22" value="High score" style="rounded=1;whiteSpace=wrap;html=1;fillColor=#dae8fc;strokeColor=#000000;" vertex="1" parent="1">
          <mxGeometry x="-320" y="1000" width="120" height="60" as="geometry"/>
        </mxCell>
        <mxCell id="IInuwYmAigKsAIb0P9fu-25" style="edgeStyle=orthogonalEdgeStyle;rounded=0;orthogonalLoop=1;jettySize=auto;html=1;exitX=0.25;exitY=1;exitDx=0;exitDy=0;entryX=0;entryY=0.5;entryDx=0;entryDy=0;strokeColor=#000000;" edge="1" parent="1" source="IInuwYmAigKsAIb0P9fu-27" target="IInuwYmAigKsAIb0P9fu-28">
          <mxGeometry relative="1" as="geometry">
            <Array as="points">
              <mxPoint x="-130" y="950"/>
            </Array>
          </mxGeometry>
        </mxCell>
        <mxCell id="IInuwYmAigKsAIb0P9fu-26" style="edgeStyle=orthogonalEdgeStyle;rounded=0;orthogonalLoop=1;jettySize=auto;html=1;exitX=0.25;exitY=1;exitDx=0;exitDy=0;entryX=0;entryY=0.5;entryDx=0;entryDy=0;strokeColor=#000000;" edge="1" parent="1" source="IInuwYmAigKsAIb0P9fu-27" target="IInuwYmAigKsAIb0P9fu-29">
          <mxGeometry relative="1" as="geometry">
            <Array as="points">
              <mxPoint x="-130" y="1030"/>
            </Array>
          </mxGeometry>
        </mxCell>
        <mxCell id="IInuwYmAigKsAIb0P9fu-27" value="Damage system" style="rounded=1;whiteSpace=wrap;html=1;fillColor=#dae8fc;strokeColor=#000000;" vertex="1" parent="1">
          <mxGeometry x="-160" y="840" width="120" height="60" as="geometry"/>
        </mxCell>
        <mxCell id="IInuwYmAigKsAIb0P9fu-28" value="Attack" style="rounded=1;whiteSpace=wrap;html=1;fillColor=#dae8fc;strokeColor=#000000;" vertex="1" parent="1">
          <mxGeometry x="-121.12" y="920" width="120" height="60" as="geometry"/>
        </mxCell>
        <mxCell id="IInuwYmAigKsAIb0P9fu-29" value="Defend" style="rounded=1;whiteSpace=wrap;html=1;fillColor=#dae8fc;strokeColor=#000000;" vertex="1" parent="1">
          <mxGeometry x="-121.12" y="1000" width="120" height="60" as="geometry"/>
        </mxCell>
      </root>
    </mxGraphModel>
  </diagram>
</mxfile>
